<svg width="499" height="201" viewBox="0 0 499 201" fill="none" xmlns="http://www.w3.org/2000/svg">
    <path d="M287.09 64.13L309.58 136.5H293.32L287.08 116.24H261.92L255.35 136.5H246L270.05 64.13H287.09ZM274.85 75.15L264.16 109.22H284.98L275.07 75.15H274.85Z" fill="#6C8097"/>
    <path d="M363.6 136.5H320.17V64.13H335.54V128.49H363.6V136.5Z" fill="#6C8097"/>
    <path d="M413.04 72.14H393.67V136.5H378.2V72.14H358.71V64.12H413.04V72.14V72.14Z" fill="#6C8097"/>
    <path d="M438.54 136.5H423.18V64.13H438.54V136.5Z" fill="#6C8097"/>
    <path d="M493.22 75.71C493.22 75.71 485.99 70.81 478.19 70.81C472.62 70.81 468.84 74.04 468.84 79.83C468.84 95.42 498.12 91.85 498.12 115.9C498.12 129.82 486.65 137.72 472.63 137.72C456.04 137.72 450.7 128.92 450.7 128.92L454.93 122.46C454.93 122.46 460.61 129.47 471.64 129.47C478.87 129.47 482.66 125.24 482.66 119.34C482.66 105.31 453.71 107.65 453.71 84.6C453.71 71.24 463.51 63 477.2 63C487.23 63 495.01 68.12 495.01 68.12L493.22 75.71Z" fill="#6C8097"/>
    <path d="M130.68 0.960022L112.48 27.21L130.89 59.1L0.399994 188.92L167.28 64.35L130.68 0.960022Z" fill="#B3BBCA"/>
    <path d="M103.12 10.99L0.399994 188.92L112.48 27.21L103.12 10.99Z" fill="#E4B974"/>
    <path d="M194.19 110.97L167.98 123.33L183.65 150.47L4.37 200.45H245.85L194.19 110.97Z" fill="#6C8097"/>
    <path d="M152.39 96.33L4.37 200.45L167.98 123.33L152.39 96.33Z" fill="#D78E25"/>
</svg>    